<svg xmlns="http://www.w3.org/2000/svg" width="24" height="24" viewBox="0 0 24 24" role="img" aria-hidden="true">
  <path fill="#a06b4a" fill-rule="evenodd" d="M 12,4 C 21.747447,5.0830495 23.148424,15.963703 13.201904,22.395507 15.645709,21.272631 21,19.089286 21,11.52124 21,5.929358 16.970563,4 12,4 Z m 0,0 c 6.64683,4.4312198 5.095609,14.305122 0.221924,18.903076 0.0139,-0.01 0.03554,-0.02068 0.05054,-0.03076 C 22.410776,13.97867 18.686305,6.2287682 12,4 Z m 0,0 c 1.125,3.375 1.125,13.5 0,19.125 C 16.163508,16.375 15.375,8.5 12,4 Z m 0,0 C 8.625,8.5 7.836492,16.375 12,23.125 10.875,17.5 10.875,7.375 12,4 Z m 0,0 c -6.6863047,2.2287682 -10.4107768,9.97867 -0.272461,18.872315 0.015,0.01008 0.03664,0.02078 0.05054,0.03076 C 6.9043916,18.305122 5.3531704,8.4312198 12,4 Z m 0,0 C 7.0294371,4 3,5.929358 3,11.52124 3,19.089286 8.354291,21.272631 10.798096,22.395507 0.8515764,15.963703 2.2525537,5.0830495 12,4 Z" />
  <path fill="#7d5238" fill-rule="evenodd" d="M 12,4 C 8.828873,4 6.0466694,4.7917011 4.4436033,6.8125 6.0466694,8.8332989 8.828873,9.625 12,9.625 c 3.171126,0 5.95333,-0.7917011 7.556397,-2.8125 C 17.95333,4.7917011 15.171126,4 12,4 Z" />
</svg>
