<svg xmlns="http://www.w3.org/2000/svg" width="24" height="24" viewBox="0 0 24 24" role="img" aria-hidden="true">
  <path fill="#7cae57" d="M 9.4468712,5.4643115 C 6.5317229,3.78125 3.6995749,4.4204841 2.4847211,6.5246725 1.2698675,8.6288608 2.4172611,11.565683 5.0474965,13.08425 c 2.7998071,1.61647 3.3497289,0.663978 5.2547145,1.763821 1.904984,1.099843 1.355063,2.052338 4.21254,3.702103 2.857478,1.649765 5.747296,1.043827 6.962151,-1.060361 1.214852,-2.104189 0.294701,-4.909814 -2.562777,-6.55958 C 16.056648,9.2804681 15.506726,10.232961 13.60174,9.1331171 11.696756,8.0332733 12.246678,7.0807809 9.4468712,5.4643115 Z" />
  <path fill="#5f8f42" opacity="0.35" d="M 9.4468712,5.4643115 C 6.5317229,3.78125 3.6995749,4.4204841 2.4847211,6.5246725 1.2698675,8.6288608 2.4172611,11.565683 5.0474965,13.08425 c 2.7998071,1.61647 3.3497289,0.663978 5.2547145,1.763821 1.904984,1.099843 1.355063,2.052338 4.21254,3.702103 2.857478,1.649765 5.747296,1.043827 6.962151,-1.060361 1.214852,-2.104189 0.294701,-4.909814 -2.562777,-6.55958 C 16.056648,9.2804681 15.506726,10.232961 13.60174,9.1331171 11.696756,8.0332733 12.246678,7.0807809 9.4468712,5.4643115 Z" />
</svg>
